<svg xmlns="http://www.w3.org/2000/svg" width="139" height="40" viewBox="0 0 139 40">
    <g fill="#29292C" fill-rule="evenodd">
        <path d="M105.85 7.983C104.435 7.37 102.332 7 100.114 7c-4.77 0-7.665 2.65-7.665 5.747 0 3.186 2.179 4.438 5.184 5.455 3.236 1.094 4.089 1.951 4.089 3.37 0 1.455-1.13 2.826-3.159 2.826-2.395 0-4.201-1.335-5.59-5.017l-.974.24.17 5.262C93.752 25.49 96.448 26 98.875 26c5.053 0 8.125-2.34 8.125-6.137 0-2.548-1.314-3.946-4.629-5.166-3.58-1.313-4.825-2.143-4.825-3.713 0-1.586 1.108-2.678 2.64-2.678 2.304 0 3.872 1.356 4.906 4.532l.972-.239-.215-4.616M62.669 24.738a9.258 9.258 0 0 1-1.402-.13c-.13-1.714-.21-8.759-.201-14.917a5.524 5.524 0 0 1 1.918-.305c2.706 0 4.22 3.017 4.23 6.824.008 4.85-1.866 8.528-4.545 8.528m2.866-17.327c-1.694 0-3.054.442-4.468 1.112.016-3.87.065-7.247.162-8.523L53 1.537v.715l.802.103c1.148.15 1.588.8 1.724 2.282.259 2.836.222 18.069 0 20.511 2.214.48 4.613.852 7.013.852C69.07 26 73 22.095 73 15.922c0-4.953-3.19-8.511-7.465-8.511M21.88 1H0v1.045l1.165.161c1.67.239 2.31 1.264 2.508 3.608.374 4.487.324 12.51 0 16.369-.198 2.343-.839 3.369-2.508 3.613L0 25.952V27h14.062v-1.048l-1.477-.156c-1.668-.244-2.308-1.27-2.505-3.613-.135-1.592-.222-4.284-.252-7.438l2.898.094c1.937.062 2.746 1.487 3.21 3.597l1.086.002v-8.8h-1.086c-.464 2.112-1.273 3.536-3.21 3.6l-2.905.092c-.022-4.156.056-8.148.26-10.545h4.316c3.372 0 5.174 2.127 6.306 5.888L22 8.313 21.88 1"/>
        <path d="M28.375 8.165c-2.747 0-3.516 3.595-3.516 8.335 0 4.612 1.217 8.336 3.766 8.336 2.744 0 3.514-3.596 3.514-8.336 0-4.611-1.215-8.335-3.764-8.335M28.697 7C34.913 7 38 11.077 38 16.452 38 21.699 34.513 26 28.3 26c-6.214 0-9.3-4.077-9.3-9.453C19 11.301 22.483 7 28.697 7M78.998 14.371l6.04-.12c.032-2.498-.396-6.07-2.57-6.07-2.186 0-3.416 3.38-3.47 6.19M73 16.661C72.995 11.685 76.355 7 82.994 7c5.4 0 7.978 3.741 8.006 8.637H78.954c-.133 4.439 2.271 7.703 6.877 7.703 2.025 0 3.118-.47 4.344-1.346l.564.634C89.402 24.358 86.613 26 82.915 26c-5.805 0-9.909-3.841-9.915-9.339M55 7.569c-2.092-1.239-5.904-.653-7.836 3.746l.097-4.283L39 8.62v.739l.805.1c1.153.16 1.6.83 1.739 2.359.26 2.926.221 8.164 0 10.685-.14 1.526-.586 2.199-1.74 2.356l-.804.103V26h11.503v-1.038l-1.501-.103c-1.157-.157-1.602-.83-1.736-2.356-.208-2.315-.254-6.92-.058-9.924.554-.905 3.257-1.635 5.766.032L55 7.57M115.501 13.875l2.78 2.125-1.062-3.439L120 10.438h-3.438L115.501 7l-1.063 3.438H111l2.78 2.123L112.72 16l2.781-2.125M135.56 10.437L134.499 7l-1.063 3.437H130l2.78 2.126L131.718 16l2.78-2.126L137.281 16l-1.063-3.437L139 10.437h-3.44M120.56 21.437L119.498 18l-1.061 3.437H115l2.78 2.126L116.72 27l2.778-2.126L122.28 27l-1.062-3.437L124 21.437h-3.44M126.218 6.562L129 4.437h-3.439L124.5 1l-1.063 3.437H120l2.782 2.125L121.718 10l2.782-2.125L127.282 10l-1.064-3.438M135 21.437h-3.437L130.5 18l-1.061 3.437H126l2.783 2.124L127.72 27l2.78-2.125L133.282 27l-1.062-3.439 2.78-2.124M8 33.976H4.773V40H3.24v-6.024H0V33h8v.976M14.603 36.589h2.805c.901 0 1.531-.602 1.531-1.312 0-.72-.772-1.3-1.617-1.3h-2.72v2.612zM13 40v-7h4.422c1.832 0 3.149 1.154 3.149 2.277 0 .937-.787 1.795-1.99 2.06L21 40h-1.818l-2.232-2.435h-2.347V40H13zM30.507 34.232l-1.602 3.047h3.15l-1.548-3.047zM26 40l3.882-7h1.25L35 40h-1.615l-1.032-1.903h-3.72L27.63 40H26zM40.61 33l2.91 5.61L46.403 33H48l-3.83 7h-1.3L39 33h1.61M61 39.024V40h-7v-7h6.87v.976h-5.26v1.992h4.556v.917H55.61v2.139H61M66 40v-7h1.59v6.024H73V40h-7M88.65 38.967c-.846.7-1.808 1.033-2.913 1.033C83.08 40 81 38.033 81 35.967 81 33.822 83.053 32 85.794 32c1.91 0 3.215.689 3.89 1.722l-1.234.689c-.546-.855-1.55-1.289-2.699-1.289-1.88 0-3.115 1.367-3.115 2.878 0 1.589 1.393 2.878 3.23 2.878 1.019 0 1.952-.378 2.784-1.167v-.833h-2.138v-.922H90v3.988h-1.35v-.977M102.525 36.525V33H104v3.525c0 1.898-1.148 3.475-4.006 3.475C97.044 40 96 38.326 96 36.525V33h1.462v3.525c0 1.272.613 2.486 2.532 2.486 1.944 0 2.531-1.243 2.531-2.486M110 40h1v-7h-1zM121.371 33.976h-1.873v5.048h1.873c2.007 0 3.104-1.095 3.104-2.534 0-1.469-1.137-2.514-3.104-2.514zM118 40v-7h3.371c3.064 0 4.629 1.558 4.629 3.49 0 2.12-1.82 3.51-4.629 3.51H118zM139 39.024V40h-7v-7h6.87v.976h-5.26v1.992h4.556v.917h-4.556v2.139H139"/>
    </g>
</svg>
