<svg xmlns="http://www.w3.org/2000/svg" width="114" height="114" viewBox="0 0 114 114">
    <g fill="#FFF" fill-rule="evenodd">
        <path d="M80.997 65.666L73.585 60l2.83 9.172L69 74.833h9.167L80.997 84l2.835-9.167H93l-7.414-5.661L88.413 60l-7.416 5.666M30.172 74.834L33.005 84l2.835-9.166H45l-7.414-5.668L40.417 60l-7.412 5.668L25.585 60l2.834 9.166L21 74.834h9.172M69.173 44.834L72.003 54l2.833-9.166H84l-7.415-5.67L79.415 30l-7.412 5.669L64.586 30l2.832 9.164L60 44.834h9.173M30 44.833h9.166L42 54l2.83-9.167H54l-7.421-5.662L49.412 30 42 35.667 34.58 30l2.832 9.171L30 44.833"/>
    </g>
</svg>
