<svg xmlns="http://www.w3.org/2000/svg" width="114" height="114" viewBox="0 0 114 114">
    <g fill="#FFF" fill-rule="evenodd">
        <path d="M33.003 54.334L40.415 60l-2.83-9.172L45 45.167h-9.167L33.003 36l-2.835 9.167H21l7.414 5.661L25.587 60l7.416-5.666M83.828 45.166L80.995 36l-2.835 9.166H69l7.414 5.668L73.583 60l7.412-5.668L88.415 60l-2.834-9.166L93 45.166h-9.172M44.827 75.166L41.997 66l-2.833 9.166H30l7.415 5.67L34.585 90l7.412-5.669L49.414 90l-2.832-9.164L54 75.166h-9.173M61.58 32.833L69 27.166h-9.17L57 18l-2.835 9.166H45l7.42 5.667L49.58 42 57 36.334 64.419 42l-2.838-9.166M84 75.167h-9.166L72 66l-2.83 9.167H60l7.421 5.662L64.588 90 72 84.333 79.42 90l-2.832-9.171L84 75.167"/>
    </g>
</svg>
